<?xml version="1.0" standalone="no"?>
<!DOCTYPE svg PUBLIC "-//W3C//DTD SVG 20010904//EN"
 "http://www.w3.org/TR/2001/REC-SVG-20010904/DTD/svg10.dtd">
<svg version="1.0" xmlns="http://www.w3.org/2000/svg"
 width="40.000000pt" height="40.000000pt" viewBox="0 0 40.000000 40.000000"
 preserveAspectRatio="xMidYMid meet">

<g transform="translate(0.000000,40.000000) scale(0.100000,-0.100000)"
fill="#000000" stroke="none">
<!--<path d="M333 203 l2 -198 33 -3 32 -3 0 200 0 201 -34 0 -35 0 2 -197z"/>-->
<path fill="#FF4A26" d="M217 363 c-12 -11 -8 -40 7 -52 18 -15 26 -3 19 32 -5 27 -13 33 -26
20z"/>
<path fill="#FF4A26" d="M164 316 c-3 -13 -1 -33 5 -44 6 -12 11 -28 11 -37 0 -24 -23 -13
-30 14 l-5 23 -25 -20 c-23 -18 -23 -22 -11 -62 14 -48 9 -60 -19 -42 -18 11
-20 9 -20 -13 0 -33 25 -81 45 -89 9 -3 40 -6 69 -6 64 0 88 18 111 81 29 79
29 79 6 79 -15 0 -21 6 -21 23 0 29 -8 40 -48 62 -17 11 -35 27 -38 37 -8 25
-23 22 -30 -6z m46 -180 c20 -26 8 -61 -23 -64 -35 -4 -45 19 -23 53 19 29 29
31 46 11z"/>
</g>
</svg>
